<?xml version="1.0" encoding="utf-8"?>
<!-- Generator: Adobe Illustrator 17.0.0, SVG Export Plug-In . SVG Version: 6.00 Build 0)  -->
<!DOCTYPE svg PUBLIC "-//W3C//DTD SVG 1.1//EN" "http://www.w3.org/Graphics/SVG/1.1/DTD/svg11.dtd">
<svg version="1.1" id="Layer_1" xmlns="http://www.w3.org/2000/svg" xmlns:xlink="http://www.w3.org/1999/xlink" x="0px" y="0px"
	 width="150px" height="100px" viewBox="25 15.5 150 100" enable-background="new 25 15.5 150 100" xml:space="preserve">
<g>
	<polygon fill="#ED1C24" points="112.604,63.766 143.4,45.986 143.4,40.812 112.604,58.592 	"/>
	<polygon fill="#005DA4" points="112.604,41.402 143.4,23.622 143.4,18.448 112.604,36.227 	"/>
	<path d="M59.98,86.287V74.775h-8.997v11.512H45.61h-0.58V58.314h5.953v11.71h8.997v-11.71h5.954v27.973H59.98z M143.397,76.29
		c0-1.664,0.364-3.251,1.082-4.751c0.334-0.632,0.766-1.203,1.308-1.674c0.335-0.3,0.704-0.495,1.117-0.58
		c0.621-0.128,1.291-0.108,1.569,0.547c0.076,0.175,0.12,0.367,0.156,0.54c0.19,0.95,0.199,2.72,0.199,3.389v12.528h5.733V71.471
		c-0.024-1.941-0.4-4.058-1.758-5.533c-1.099-1.216-2.463-1.77-3.926-1.789c-2.356-0.03-4.821,1.427-5.481,3.702V55.021
		l-5.702,3.293v27.973h5.702L143.397,76.29L143.397,76.29z M68.83,82.288c-0.614-1.024-1.076-2.204-1.383-3.529
		s-0.462-2.792-0.462-4.392c0-0.992,0.068-2.001,0.247-2.988c0.158-0.87,0.4-1.723,0.756-2.531c0.422-0.958,1.011-1.847,1.773-2.569
		c0.874-0.829,1.967-1.439,3.267-1.794c0.872-0.236,1.837-0.36,2.894-0.357c0.772-0.003,1.546,0.076,2.297,0.257
		c0.939,0.228,1.773,0.603,2.49,1.11c0.86,0.609,1.547,1.414,2.05,2.336c0.608,1.116,0.969,2.432,1.101,3.895
		c0.062,0.686,0.057,1.369,0.057,2.055v0.992h-5.764h-5.764c0.076,0.912,0.281,1.836,0.608,2.711
		c0.287,0.768,0.674,1.522,1.166,2.193c0.492,0.671,1.09,1.259,1.798,1.698c0.955,0.59,2.037,0.858,3.155,0.86
		c1.193,0.003,2.416-0.327,3.527-0.74l0.781-0.288v4.568L83.03,85.91c-1.063,0.363-2.161,0.605-3.354,0.735
		c-0.736,0.08-1.5,0.127-2.26,0.122c-0.761-0.005-1.521-0.064-2.253-0.194c-0.809-0.144-1.567-0.37-2.27-0.678
		c-0.702-0.306-1.35-0.693-1.936-1.156C70.102,84.062,69.39,83.223,68.83,82.288 M78.408,70.725
		c-0.031-0.197-0.078-0.402-0.145-0.603c-0.169-0.506-0.456-0.957-0.893-1.272c-0.202-0.146-0.443-0.267-0.739-0.353
		c-0.797-0.234-1.752-0.206-2.49,0.189c-0.563,0.3-0.989,0.802-1.268,1.367c-0.111,0.226-0.198,0.455-0.26,0.671H78.408z
		 M92.968,69.085v9.121c-0.001,0.437,0.01,0.86,0.04,1.253c0.049,0.627,0.15,1.34,0.487,1.891c0.269,0.441,0.673,0.693,1.165,0.807
		c0.575,0.133,1.196,0.091,1.77-0.016c0.571-0.106,1.138-0.27,1.7-0.419v4.604l-0.481,0.085c-0.648,0.113-1.307,0.203-1.969,0.265
		c-0.647,0.059-1.31,0.097-1.972,0.091c-0.661-0.006-1.322-0.054-1.964-0.168c-0.902-0.16-1.793-0.459-2.537-1.007
		c-0.613-0.452-1.075-1.043-1.386-1.738c-0.184-0.409-0.31-0.842-0.395-1.289c-0.179-0.931-0.165-1.871-0.165-2.812V69.085h-3.809
		v-4.481h3.809v-6.289l5.702-3.293l0.005,9.582h7.206v-6.289l5.702-3.293l0.004,9.582h5.766v4.481h-5.765v9.121
		c-0.001,0.437,0.008,0.86,0.039,1.253c0.048,0.627,0.15,1.34,0.487,1.891c0.269,0.441,0.673,0.693,1.164,0.807
		c0.576,0.133,1.194,0.091,1.768-0.016c0.573-0.106,1.139-0.27,1.701-0.419v4.604l-0.479,0.085c-0.648,0.113-1.309,0.203-1.97,0.265
		c-0.646,0.059-1.31,0.097-1.971,0.091c-0.663-0.006-1.323-0.054-1.964-0.168c-0.903-0.16-1.794-0.459-2.538-1.007
		c-0.614-0.452-1.074-1.043-1.387-1.738c-0.183-0.409-0.309-0.842-0.395-1.289c-0.178-0.931-0.164-1.871-0.164-2.812V69.085H92.968z
		 M113.185,86.287h-0.581V64.603h5.708v21.684L113.185,86.287L113.185,86.287z M121.063,82.082
		c-0.597-0.993-1.058-2.152-1.361-3.479c-0.238-1.042-0.383-2.155-0.422-3.274c-0.041-1.119,0.023-2.242,0.2-3.306
		c0.162-0.982,0.431-1.916,0.812-2.779c0.528-1.192,1.295-2.273,2.298-3.11c1.037-0.865,2.334-1.487,3.882-1.793
		c1.472-0.29,3.144-0.299,4.614-0.001c1.156,0.235,2.117,0.655,2.894,1.219c0.976,0.709,1.685,1.678,2.135,2.792
		c0.429,1.066,0.617,2.232,0.66,3.398c0.012,0.348,0.01,0.695,0.01,1.043h-5.995v-0.581c0.002-0.304-0.012-0.609-0.04-0.905
		c-0.06-0.605-0.194-1.263-0.531-1.784c-0.282-0.434-0.683-0.701-1.181-0.808c-0.442-0.096-0.947-0.082-1.38,0.043
		c-0.436,0.127-0.814,0.374-1.123,0.705c-0.374,0.398-0.636,0.895-0.821,1.403c-0.142,0.392-0.251,0.829-0.325,1.299
		c-0.175,1.111-0.142,2.289,0.039,3.396c0.1,0.611,0.25,1.218,0.455,1.802c0.51,1.453,1.374,2.776,2.649,3.67
		c0.696,0.488,1.522,0.852,2.504,1.046c0.94,0.186,1.935,0.2,2.887,0.102c0.703-0.073,1.306-0.214,1.878-0.424l0.781-0.287v4.185
		l-0.401,0.13c-1.2,0.391-2.503,0.702-3.879,0.861c-0.675,0.078-1.36,0.119-2.044,0.116c-0.685-0.002-1.369-0.049-2.041-0.147
		c-1.127-0.164-2.196-0.471-3.178-0.935C123.368,84.892,122.012,83.656,121.063,82.082"/>
	<polygon fill="#FDB913" points="112.604,56.312 143.4,38.531 143.4,33.357 112.604,51.137 	"/>
	<polygon fill="#00A76D" points="112.604,48.857 143.4,31.076 143.4,25.902 112.604,43.682 	"/>
</g>
</svg>
