<?xml version="1.0" encoding="utf-8"?>
<!-- Generator: Adobe Illustrator 17.0.0, SVG Export Plug-In . SVG Version: 6.00 Build 0)  -->
<!DOCTYPE svg PUBLIC "-//W3C//DTD SVG 1.1//EN" "http://www.w3.org/Graphics/SVG/1.1/DTD/svg11.dtd">
<svg version="1.1" id="Layer_1" xmlns="http://www.w3.org/2000/svg" xmlns:xlink="http://www.w3.org/1999/xlink" x="0px" y="0px"
	 width="150px" height="100px" viewBox="3590.618 707.237 150 100" enable-background="new 3590.618 707.237 150 100"
	 xml:space="preserve">
<g id="CuadrÌcula">
</g>
<g id="Capa_1" display="none">
</g>
<g id="Escritorio" display="none">
</g>
<g id="GuÌas" display="none">
</g>
<g id="Page_1">
	<g id="Capa_1_1_">
		<path d="M3617.058,763.363c0,3.358-1.875,4.837-5.41,4.837h-14.293l0.887-3.219h13.309c1.159,0,1.77-0.318,1.77-1.618v-0.36
			c0-1.3-0.611-1.618-1.77-1.618h-9.068c-3.535,0-5.41-1.479-5.41-4.837v-0.147c0-3.359,1.874-4.837,5.41-4.837h13.838l-0.887,3.219
			h-12.854c-1.159,0-1.77,0.319-1.77,1.619v0.147c0,1.3,0.611,1.618,1.77,1.618h9.069c3.535,0,5.41,1.478,5.41,4.837V763.363
			L3617.058,763.363z M3639.246,768.2h-12.975c-3.66,0-5.697-1.626-5.697-5.124v-6.387c0-3.498,2.037-5.125,5.697-5.125h12.879
			l-0.889,3.219h-11.894c-1.19,0-2.057,0.537-2.057,1.906v6.387c0,1.369,0.867,1.905,2.057,1.905h11.992L3639.246,768.2
			L3639.246,768.2z M3658.944,761.157h-12.648v7.043h-3.736v-16.636h3.736v6.432h12.648v-6.432h3.736V768.2h-3.736V761.157
			L3658.944,761.157z M3710.71,768.2h-12.976c-3.659,0-5.697-1.626-5.697-5.124v-6.387c0-3.498,2.037-5.125,5.697-5.125h12.88
			l-0.889,3.219h-11.894c-1.19,0-2.057,0.537-2.057,1.906v6.387c0,1.369,0.867,1.905,2.057,1.905h11.992L3710.71,768.2
			L3710.71,768.2z M3667.047,763.076v-11.512h3.736v11.512c0,1.369,0.866,1.905,2.057,1.905h9.408c1.19,0,2.057-0.536,2.057-1.905
			v-11.512h3.737v11.512c0,3.498-2.036,5.124-5.697,5.124h-9.602C3669.084,768.2,3667.047,766.573,3667.047,763.076
			L3667.047,763.076z M3731.881,763.076v-6.387c0-1.369-0.866-1.906-2.057-1.906h-10.707c-1.19,0-2.057,0.537-2.057,1.906v6.387
			c0,1.369,0.867,1.905,2.057,1.905h10.707C3731.015,764.981,3731.881,764.445,3731.881,763.076L3731.881,763.076z M3729.921,768.2
			h-10.901c-3.66,0-5.697-1.626-5.697-5.124v-6.387c0-3.498,2.037-5.125,5.697-5.125h10.901c3.66,0,5.697,1.626,5.697,5.125v6.387
			C3735.618,766.573,3733.581,768.2,3729.921,768.2L3729.921,768.2z M3674.734,744.595h5.622l-1.181,4.579h-3.26L3674.734,744.595
			L3674.734,744.595z M3682.417,744.595h4.788l-2.899,4.579h-3.383L3682.417,744.595L3682.417,744.595z M3667.885,744.595h4.788
			l1.494,4.579h-3.383L3667.885,744.595L3667.885,744.595z"/>
	</g>
</g>
</svg>
