<?xml version="1.0" encoding="utf-8"?>
<!-- Generator: Adobe Illustrator 17.0.0, SVG Export Plug-In . SVG Version: 6.00 Build 0)  -->
<!DOCTYPE svg PUBLIC "-//W3C//DTD SVG 1.1//EN" "http://www.w3.org/Graphics/SVG/1.1/DTD/svg11.dtd">
<svg version="1.1" id="Layer_1" xmlns="http://www.w3.org/2000/svg" xmlns:xlink="http://www.w3.org/1999/xlink" x="0px" y="0px"
	 width="150px" height="100px" viewBox="-35.109 -30.796 150 100" enable-background="new -35.109 -30.796 150 100"
	 xml:space="preserve">
<g>
	<path fill="#EF3E33" d="M82.512,30.15V12.394h-5.06v6.44h-5.52v-6.44h-4.876V30.15h4.876v-7.084h5.52v7.084H82.512L82.512,30.15
		L82.512,30.15z"/>
	<path fill="#EF3E33" d="M65.769,27.206l-3.496-2.576c-1.012,1.196-2.3,2.116-3.772,1.932c-2.3-0.184-3.864-2.116-3.864-4.968
		c0-3.036,1.38-5.244,3.864-5.244c1.656,0,2.668,0.644,3.679,1.932l3.496-2.392c-1.196-1.38-3.311-3.956-7.451-3.864
		c-5.796,0.184-8.372,3.864-8.372,9.66c0,5.336,3.588,9.384,8.924,9.016C62.732,30.518,64.664,28.402,65.769,27.206L65.769,27.206
		L65.769,27.206z"/>
	<path fill="#EF3E33" d="M48.288,25.182c0.093-2.852-2.392-4.876-5.244-5.612c-1.564-0.368-4.232-0.644-3.956-2.3
		c0.185-1.196,1.472-1.38,2.576-1.38c1.104,0,2.116,0.368,3.496,1.288l2.576-3.128c-1.748-0.92-3.864-2.024-6.072-2.024
		c-4.783,0-7.819,2.576-7.819,5.888c0,1.288,0.92,3.036,1.748,3.68c1.104,1.012,3.681,1.932,4.876,2.208
		c1.288,0.368,3.128,0.736,3.036,1.932c-0.184,1.104-1.288,1.38-2.484,1.38c-1.655,0-3.22-0.827-4.692-1.932l-3.22,2.944
		c1.564,1.196,4.692,2.944,6.9,2.944C44.977,31.07,48.288,28.77,48.288,25.182L48.288,25.182L48.288,25.182z"/>
	<path fill="#EF3E33" d="M5.97,30.978h-7.636v-18.4H6.43c4.691,0,6.9,1.472,6.9,4.692c0,2.024-0.92,3.22-2.944,3.956
		c2.3,0.644,3.496,2.208,3.496,4.416C13.882,29.322,11.214,30.978,5.97,30.978L5.97,30.978L5.97,30.978z M6.062,16.166h-3.22v3.772
		h3.404c0.828,0,2.024-0.736,2.024-1.841C8.27,16.994,7.626,16.166,6.062,16.166L6.062,16.166L6.062,16.166z M6.89,23.25H2.842
		v3.864h4.14c1.012,0,2.116-1.104,2.116-1.839C9.098,23.986,8.086,23.25,6.89,23.25L6.89,23.25L6.89,23.25z"/>
	<path fill="#EF3E33" d="M23.817,16.626c2.392,0,4.324,2.3,4.324,5.152s-1.932,5.244-4.324,5.244s-4.325-2.392-4.325-5.244
		C19.493,18.927,21.426,16.626,23.817,16.626L23.817,16.626L23.817,16.626z M14.709,21.686c0,5.152,4.14,9.384,9.108,9.384
		c5.06,0,9.2-4.232,9.2-9.384s-4.14-9.292-9.2-9.292C18.849,12.394,14.709,16.534,14.709,21.686L14.709,21.686L14.709,21.686z"/>
</g>
</svg>
