<?xml version="1.0" encoding="utf-8"?>
<!-- Generator: Adobe Illustrator 17.0.0, SVG Export Plug-In . SVG Version: 6.00 Build 0)  -->
<!DOCTYPE svg PUBLIC "-//W3C//DTD SVG 1.1//EN" "http://www.w3.org/Graphics/SVG/1.1/DTD/svg11.dtd">
<svg version="1.1" id="Layer_1" xmlns="http://www.w3.org/2000/svg" xmlns:xlink="http://www.w3.org/1999/xlink" x="0px" y="0px"
	 width="150px" height="100px" viewBox="348.329 230.068 150 100" enable-background="new 348.329 230.068 150 100"
	 xml:space="preserve">
<g id="Ebene_1">
	<g>
		<path d="M383.775,277.594c0.6,0.886,1.594,2.197,3.003,3.276c-2.023,0-3.365,0.047-5.077-2.659l-0.385-0.617l-4.359-6.976
			c-0.281,0.108-0.566,0.208-0.856,0.303l4.169,6.673l1.194,1.91c0.524,0.834,1.642,2.484,3.308,3.762
			c-2.022,0-3.363,0.046-5.075-2.66l-1.881-3.011l-3.834-6.137c-0.328,0.526-0.437,0.988-0.437,1.448
			c0,1.696,0.656,3.278,1.659,4.689c0.696,0.979,1.563,1.879,2.49,2.683c-0.144,0.064-0.396,0.088-0.63,0.088
			c-0.466,0-0.769-0.028-0.98-0.063c0.525,1.191,1.651,2.73,2.22,3.528c0.741-0.133,1.819-0.237,2.526-0.237
			c0.739,0,0.822,0.431,0.822,0.817c0,0.671-0.314,1.209-0.679,1.508c-0.136-0.35-0.413-0.805-1.777-0.805
			c0.261,0.45,1.51,1.46,1.51,2.274c0,0.538-0.59,1.345-1.369,1.345c0.046-0.174,0.04-0.335,0.04-0.454
			c0-0.657-0.583-1.427-1.075-1.965c0.014,0.159,0.007,0.143,0.007,0.328c0,1.558-0.141,2.273-1.129,2.273
			c-0.484,0-0.819-0.265-0.934-0.343c0.641-0.593,0.674-1.057,0.674-1.931l-0.005-0.756c-0.001-0.198,0.003-0.463,0.033-0.656
			c-0.354-0.049-0.496-0.047-0.769-0.047c0,0-1.405-0.112-1.742,0.62c-0.38-0.351-0.934-0.843-0.934-1.389
			c0-0.359,0.17-0.766,0.893-0.766c0.274,0,1.136,0.167,1.857,0.167c-0.194-0.431-1.058-1.692-1.803-2.608
			c-0.114,0.356-0.289,0.741-0.681,1.053c-0.054-0.587-0.4-2.447-1.32-3.535c-0.107,0.734-0.252,1.488-0.252,3.079
			c0,3.869,0.931,6.725,2.906,7.273c-0.257,0.45-0.801,0.849-1.364,0.849c-0.723,0-1.116-0.819-1.518-1.588
			c-0.208,0.57-0.786,1.963-1.364,1.963c-0.579,0-1.157-1.393-1.364-1.963c-0.402,0.769-0.795,1.588-1.518,1.588
			c-0.565,0-1.108-0.4-1.365-0.849c1.976-0.547,2.907-3.404,2.907-7.273c0-1.591-0.145-2.345-0.252-3.079
			c-0.921,1.088-1.266,2.948-1.319,3.535c-0.392-0.311-0.568-0.697-0.682-1.053c-0.747,0.916-1.608,2.176-1.803,2.608
			c0.721,0,1.583-0.167,1.857-0.167c0.723,0,0.893,0.408,0.893,0.766c0,0.546-0.554,1.038-0.935,1.389
			c-0.336-0.732-1.741-0.62-1.741-0.62c-0.273,0-0.415-0.001-0.769,0.047c0.03,0.193,0.036,0.458,0.033,0.656l-0.005,0.756
			c0,0.874,0.032,1.337,0.675,1.931c-0.117,0.078-0.451,0.343-0.935,0.343c-0.988,0-1.13-0.715-1.13-2.273
			c0-0.185-0.007-0.169,0.008-0.328c-0.492,0.538-1.075,1.308-1.075,1.965c0,0.119-0.007,0.28,0.039,0.454
			c-0.778,0-1.369-0.807-1.369-1.345c0-0.814,1.249-1.824,1.647-2.267c-1.501-0.007-1.778,0.448-1.915,0.798
			c-0.364-0.298-0.678-0.836-0.678-1.508c0-0.385,0.082-0.817,0.82-0.817c0.707,0,1.786,0.104,2.527,0.237
			c0.569-0.798,1.694-2.337,2.22-3.528c-0.211,0.036-0.514,0.063-0.981,0.063c-0.233,0-0.485-0.024-0.63-0.088
			c0.929-0.803,1.795-1.704,2.492-2.685c1.002-1.414,1.659-2.99,1.659-4.686c0-0.46-0.11-0.922-0.265-1.415l-4.006,6.104
			l-1.881,3.011c-1.712,2.706-3.053,2.66-5.077,2.66c1.667-1.278,2.786-2.928,3.309-3.762l1.194-1.91l4.169-6.673
			c-0.29-0.095-0.576-0.195-0.856-0.303l-4.359,6.976l-0.386,0.617c-1.711,2.706-3.052,2.659-5.074,2.659
			c1.406-1.079,2.402-2.39,3.001-3.287l0.307-0.475l4.609-7.374c-0.262-0.144-0.518-0.295-0.765-0.452l-3.776,6.043
			c-0.795,1.258-1.511,1.92-2.253,2.269c-0.853,0.404-1.741,0.392-2.823,0.392l0.481-0.393c1.413-1.213,2.348-2.608,2.828-3.371
			l3.873-6.199c-0.228-0.207-0.444-0.418-0.649-0.637l-2.745,4.394c-1.711,2.708-3.052,2.659-5.075,2.659
			c1.68-1.29,2.779-2.918,3.309-3.766l3.189-5.102c-0.171-0.317-0.318-0.641-0.438-0.973l-1.601,2.565
			c-1.712,2.708-3.053,2.659-5.077,2.659c1.674-1.282,2.783-2.924,3.311-3.764l3.127-5.002c0.303-1.547,1.104-2.991,2.299-4.065
			c-0.401-0.153-0.736-0.312-0.938-0.466c2.043,0,4.065-1.038,5.18-1.038c0.716,0,1.178,0.429,1.178,0.996
			c-0.049,0.629-0.696,1.27-1.895,1.27c-0.272,0-0.619-0.036-1-0.098c-0.649,0.905-1.174,1.723-1.174,2.887
			c0,2.191,2.621,3.899,5.264,3.899l0.442-0.017c0.524-1.775,1.638-2.939,2.529-4.076c-1.067-0.389-2.258-1.403-2.258-1.862
			c0.135-0.078,2.182,0.563,2.393,0.62c0.385-0.074,0.593-0.437,0.593-0.474c-0.219-0.037-1.502-0.202-2.378-0.522
			c-0.667-0.244-1.005-0.686-1.005-0.853c0.215-0.034,1.025,0.392,2.218,0.392c0.441,0,0.525-0.017,0.963-0.071
			c-0.307-0.733-0.885-1.352-1.535-1.352c-0.261,0-0.834,0.162-1.311,0.404c-0.334-0.518-0.625-1.198-0.625-1.57
			c0-0.441,0.434-0.954,1.658-0.954c0.343,0,0.662,0.029,0.959,0.085c0.24,0.046,0.441,0.1,0.656,0.183
			c-0.026-0.323,0.128-0.503,0.702-0.503c1.008,0,2.041,0.332,3.307,0.332c0.328,0,0.551-0.013,0.74-0.094
			c-0.082,0.253-0.438,0.624-0.762,0.926c0.202,0.274,0.723,0.938,0.723,2.01c0,1.724-1.134,3.146-1.134,4.887
			c0,1.035,0.797,1.949,1.035,2.492l0.441,0.017c2.645,0,5.264-1.708,5.264-3.899c0-1.165-0.524-1.982-1.173-2.887
			c-0.381,0.062-0.728,0.098-1,0.098c-1.199,0-1.848-0.641-1.894-1.27c0-0.567,0.459-0.996,1.176-0.996
			c1.114,0,3.136,1.038,5.179,1.038c-0.203,0.153-0.537,0.312-0.939,0.466c1.196,1.074,1.997,2.518,2.3,4.065l3.127,5.002
			c0.526,0.84,1.637,2.482,3.311,3.764c-2.023,0-3.365,0.049-5.075-2.659l-1.604-2.565c-0.119,0.332-0.267,0.657-0.437,0.973
			l3.188,5.102c0.532,0.848,1.629,2.476,3.311,3.766c-2.023,0-3.365,0.049-5.075-2.659l-2.746-4.393
			c-0.203,0.219-0.421,0.43-0.649,0.637l3.874,6.199c0.48,0.764,1.415,2.159,2.828,3.371l0.481,0.393
			c-1.081,0-1.969,0.01-2.822-0.392c-0.743-0.347-1.457-1.01-2.253-2.269l-3.776-6.043c-0.248,0.157-0.502,0.309-0.765,0.452
			l4.608,7.374L383.775,277.594L383.775,277.594z"/>
		<path fill="#FFFFFF" d="M367.146,280.8c-0.111-0.405-0.219-0.702-0.642-0.702c-0.216,0-0.319,0.038-0.45,0.087
			c-0.456,1.269-2.216,3.652-2.493,4.017c-0.76-0.124-1.821-0.257-2.681-0.257c-0.201,0-0.477-0.02-0.477,0.464
			c0,0.281,0.124,0.77,0.276,0.932c0.379-0.447,1.03-0.58,1.837-0.58c0.314,0,0.694,0.11,0.838,0.144
			c-1.027,1.042-1.997,1.905-1.997,2.481c0,0.323,0.335,0.749,0.616,0.892c0-0.851,0.881-2.026,1.744-2.683
			c0,0.116,0.041,0.562,0.041,1.046c0,1.605,0.158,1.923,0.776,1.923c0.112,0,0.306-0.041,0.379-0.085
			c-0.332-0.381-0.472-0.886-0.472-1.84c0-0.274,0.008-0.533,0.008-0.757c0-0.423-0.049-0.721-0.08-0.955
			c0.237-0.033,0.773-0.11,1.167-0.11c0.84,0,1.361,0.082,1.741,0.46c0.273-0.207,0.578-0.597,0.578-0.866
			c0-0.388-0.261-0.414-0.535-0.414c-0.426,0-0.775,0.169-2.39,0.169C365.245,283.257,366.176,281.979,367.146,280.8L367.146,280.8
			L367.146,280.8z"/>
		<path fill="#FFFFFF" d="M376.784,284.167c-1.615,0-1.965-0.169-2.39-0.169c-0.273,0-0.536,0.026-0.536,0.414
			c0,0.269,0.305,0.66,0.576,0.866c0.38-0.378,0.902-0.46,1.742-0.46c0.393,0,0.93,0.077,1.166,0.11
			c-0.032,0.234-0.079,0.532-0.079,0.955c0,0.224,0.008,0.483,0.008,0.757c0,0.954-0.14,1.459-0.472,1.84
			c0.072,0.044,0.266,0.085,0.378,0.085c0.617,0,0.776-0.318,0.776-1.923c0-0.484,0.041-0.93,0.041-1.046
			c0.863,0.657,1.742,1.832,1.742,2.683c0.282-0.143,0.617-0.569,0.617-0.892c0-0.576-0.971-1.439-1.997-2.481
			c0.144-0.034,0.524-0.144,0.838-0.144c0.807,0,1.459,0.133,1.837,0.58c0.152-0.162,0.274-0.652,0.274-0.932
			c0-0.484-0.277-0.464-0.478-0.464c-0.858,0-1.922,0.133-2.68,0.257c-0.277-0.365-2.037-2.749-2.493-4.017
			c-0.131-0.049-0.234-0.087-0.45-0.087c-0.423,0-0.531,0.297-0.642,0.702C375.535,281.979,376.466,283.257,376.784,284.167
			L376.784,284.167z"/>
		<path fill="#FFFFFF" d="M381.999,261.288c0-1.905-1.386-3.415-1.874-3.838l-0.351,0.08c0.518,0.634,1.434,1.694,1.434,3.098
			c0,2.763-2.922,5.162-6.255,5.209c0.027,0.285,0.025,0.534,0.025,0.749c0,0.396-0.028,0.782-0.072,1.155
			C378.689,267.676,381.999,264.6,381.999,261.288L381.999,261.288z"/>
		<path fill="#FFFFFF" d="M360.503,260.629c0-1.405,0.914-2.464,1.434-3.098l-0.351-0.08c-0.488,0.423-1.874,1.934-1.874,3.838
			c0,3.336,3.359,6.433,7.175,6.458c-0.041-0.363-0.065-0.749-0.065-1.159c0-0.257,0.012-0.508,0.034-0.747
			C363.482,265.84,360.503,263.417,360.503,260.629L360.503,260.629z"/>
		<path fill="#FFFFFF" d="M370.76,258.057c0.174-0.397,0.409-0.872,0.409-1.395c0-1.446-1.199-2.137-2.806-2.137
			c-0.824,0-1.241,0.266-1.241,0.535c0,0.266,0.272,0.855,0.379,1.037c0.297-0.131,0.831-0.288,1.141-0.288
			C369.743,255.809,370.568,257.042,370.76,258.057L370.76,258.057z"/>
		<path fill="#FFFFFF" d="M371.549,256.208c0.938,0.183,1.579-1.014,0.687-1.228c0.124,0.394-0.478,0.675-0.478,0.675
			s-0.228-0.533,0.066-0.835c-0.543-0.265-0.682,0.058-0.693,0.397C371.346,255.502,371.487,255.837,371.549,256.208
			L371.549,256.208L371.549,256.208z"/>
	</g>
</g>
<head></head>
<rect x="391.21" y="246.516" width="3.603" height="23.834"/>
<rect x="391.21" y="270.085" fill="#F91E34" width="3.603" height="23.834"/>
<rect x="391.21" y="293.787" fill="#F7CA0F" width="3.603" height="23.834"/>
<text transform="matrix(1 0 0 1 398.8475 260.4338)" font-family="'LucidaGrande'" font-size="9">Посольство</text>
<text transform="matrix(1 0 0 1 398.8475 269.7931)" font-family="'LucidaGrande'" font-size="9">Федеративной</text>
<text transform="matrix(1 0 0 1 398.8475 279.1525)" font-family="'LucidaGrande'" font-size="9">Республики Германия</text>
<text transform="matrix(1 0 0 1 398.8475 288.5128)" font-family="'LucidaGrande'" font-size="9">Минск</text>
</svg>
