<?xml version="1.0" encoding="utf-8"?>
<!-- Generator: Adobe Illustrator 17.0.0, SVG Export Plug-In . SVG Version: 6.00 Build 0)  -->
<!DOCTYPE svg PUBLIC "-//W3C//DTD SVG 1.1//EN" "http://www.w3.org/Graphics/SVG/1.1/DTD/svg11.dtd">
<svg version="1.1" id="Layer_1" xmlns="http://www.w3.org/2000/svg" xmlns:xlink="http://www.w3.org/1999/xlink" x="0px" y="0px"
	 width="150px" height="100px" viewBox="18.237 -14.994 150 100" enable-background="new 18.237 -14.994 150 100"
	 xml:space="preserve">
<polygon fill="#040607" points="23.08,10.523 163.395,10.523 163.395,63.489 23.08,63.489 "/>
<polygon fill="#FFFFFF" points="23.08,36.17 64.339,36.17 64.339,42.488 23.08,42.488 "/>
<path fill="#FFFFFF" d="M52.816,34.682v-7.434h12.823c0,0,11.522-1.673,11.522,12.079c0,12.453-13.195,11.152-13.195,11.152v4.831
	H52.816V43.975h13.009v-9.293H52.816L52.816,34.682z"/>
<path fill="#FFFFFF" d="M94.631,55.311v-14.31c0,0,0-5.203-5.575-5.203s-10.965,0-10.965,0v6.69h8.549v7.248h-1.301v-5.762
	c0,0-1.115,0-3.159,0c-2.23,0-6.691,0-6.691,5.204c0,5.39,4.089,6.132,5.947,6.132C83.109,55.311,94.631,55.311,94.631,55.311
	L94.631,55.311z"/>
<path fill="#FFFFFF" d="M96.305,55.311h7.991V42.674h4.646v-7.062c0,0-3.903,0-6.319,0c-3.345,0-6.319,2.23-6.319,4.832
	C96.305,43.789,96.305,55.311,96.305,55.311L96.305,55.311z"/>
<path fill="#FFFFFF" d="M148.342,55.311h7.991V42.674h4.46v-7.062c0,0-3.717,0-6.133,0c-3.346,0-6.319,2.23-6.319,4.832
	C148.342,43.789,148.342,55.311,148.342,55.311L148.342,55.311z"/>
<polygon fill="#FFFFFF" points="110.057,55.311 110.057,27.435 117.677,27.435 117.677,42.674 121.394,35.798 130.128,35.798 
	124.367,45.461 130.314,55.311 121.58,55.311 118.049,48.807 118.049,55.311 "/>
<path fill="#FFFFFF" d="M137.191,48.807h9.478v6.504h-10.964c-4.275,0-7.248-2.602-7.248-6.504c0-3.718-0.186-6.691,0.371-8.921
	c0.557-2.045,2.602-4.46,8.549-4.46s9.293,2.045,9.293,5.575c0,3.532,0,6.506,0,6.506h-8.177v-5.762h-1.301L137.191,48.807
	L137.191,48.807L137.191,48.807z"/>
</svg>
