<?xml version="1.0" encoding="utf-8"?>
<!-- Generator: Adobe Illustrator 17.0.0, SVG Export Plug-In . SVG Version: 6.00 Build 0)  -->
<!DOCTYPE svg PUBLIC "-//W3C//DTD SVG 1.1//EN" "http://www.w3.org/Graphics/SVG/1.1/DTD/svg11.dtd">
<svg version="1.1" id="Layer_1" xmlns="http://www.w3.org/2000/svg" xmlns:xlink="http://www.w3.org/1999/xlink" x="0px" y="0px"
	 width="150px" height="100px" viewBox="11 -29.144 150 100" enable-background="new 11 -29.144 150 100" xml:space="preserve">
<path fill="#2C58E5" d="M92.122,22.195c0,0-1.232-0.762-1.994-1.056c0,0-2.357-1.093-2.825-1.612c0,0-0.918-0.866-0.38-1.872
	c0,0,0.225-0.658,1.196-0.658c0,0,1.264,0.07,1.264,1.108v1.465h4.53l-0.008-2.158c0,0,0.348-3.535-5.336-3.69
	c0,0-4.47-0.295-5.752,2.114c0,0-0.503,0.536-0.503,2.408v1.352c0,0-0.051,1.559,0.745,2.564c0,0,0.45,0.658,1.56,1.386
	c0,0,2.252,1.213,3.604,1.907c0,0,1.365,0.779,1.184,2.018c0,0-0.11,1.271-1.428,1.221c0,0-1.205-0.055-1.205-1.302v-1.465h-4.826
	v2.127c0,0-0.136,4.068,6.068,4.068c0,0,5.926,0.12,6.203-4.177v-1.731C94.216,26.214,94.425,23.582,92.122,22.195L92.122,22.195z"
	/>
<polygon fill="#2C58E5" points="68.931,14.229 67.414,23.734 67.059,23.734 65.61,14.314 58.043,14.314 57.664,31.527 
	62.145,31.527 62.198,18.558 62.551,18.558 64.925,31.525 69.638,31.525 71.984,18.563 72.296,18.563 72.404,31.527 76.908,31.527 
	76.423,14.229 "/>
<polygon fill="#2C58E5" points="42.262,14.301 39.281,31.508 44.104,31.508 45.87,18.166 46.266,18.166 48.031,31.508 
	52.853,31.508 49.873,14.301 "/>
<path fill="#2C58E5" d="M143.462,21.958v2.538h1.236v2.725c0,1.332-1.138,1.356-1.138,1.356c-1.385,0-1.333-1.266-1.333-1.266
	v-9.425c0-0.971,1.228-1.023,1.228-1.023c1.179,0,1.188,1.158,1.188,1.158v1.433h4.54c0.148-2.797-0.409-3.474-0.409-3.474
	c-1.127-2.53-5.387-2.391-5.387-2.391c-6.549,0-5.822,5.024-5.822,5.024v9.113c0.141,4.712,6.593,4.234,6.702,4.228
	c2.872-0.318,3.737-1.228,3.737-1.228c0.798-0.593,1.004-1.413,1.004-1.413c0.228-0.478,0.284-2.001,0.284-2.001v-5.354
	L143.462,21.958L143.462,21.958L143.462,21.958z"/>
<polygon fill="#2C58E5" points="128.411,24.759 128.214,24.759 123.604,14.233 118.092,14.233 118.092,31.529 122.579,31.529 
	122.31,21.006 122.51,21.006 127.284,31.529 132.631,31.529 132.631,14.232 128.087,14.232 "/>
<path fill="#2C58E5" d="M107.137,27.22c0,0,0.066,1.42-1.25,1.42c0,0-1.386,0.074-1.386-1.384l-0.014-13.011h-4.921v12.908
	c0,0-0.506,4.885,6.389,4.885c0,0,5.992,0.071,5.992-4.661V14.245h-4.81V27.22L107.137,27.22z"/>
<path fill="#2C58E5" d="M32.879,22.195c0,0-1.23-0.762-1.992-1.055c0,0-2.356-1.091-2.823-1.612c0,0-0.919-0.867-0.381-1.87
	c0,0,0.224-0.658,1.194-0.658c0,0,1.265,0.069,1.265,1.108v1.465h4.531l-0.009-2.159c0,0,0.346-3.534-5.336-3.689
	c0,0-0.427-0.028-1.055,0.004c0,0-3.442,0.185-4.673,2.073c-0.007,0.013-0.017,0.024-0.024,0.037c0,0-0.502,0.536-0.502,2.408v1.352
	c0,0-0.052,1.559,0.745,2.564c0,0,0.45,0.658,1.559,1.386c0,0,2.252,1.213,3.603,1.905c0,0,1.366,0.779,1.186,2.02
	c0,0-0.111,1.271-1.428,1.221c0,0-1.205-0.055-1.205-1.302v-1.465h-4.828v2.129c0,0-0.135,4.068,6.067,4.068
	c0,0,5.925,0.12,6.204-4.177v-1.731C34.976,26.214,35.183,23.582,32.879,22.195L32.879,22.195z"/>
</svg>
